# xmcd
#
# Track frame offsets: 
#        150
#        22918
#        44076
#        64192
#        88787
#        108246
#        132511
#        157915
#        177603
#        202217
#        228023
#        251618
#
# Disc length: 3690 seconds
#
# Revision: 0
# Processed by: cddbd v1.5.2PL0 Copyright (c) Steve Scherf et al.
# Submitted via: ExactAudioCopyFreeDBPlugin 1.0
#
DISCID=a50e680c
DTITLE=Leroy Johnson - Let the Son Shine
DYEAR=2014
DGENRE=R&B and Soul
TTITLE0=Grace and Mercy (feat. Onita Boone)
TTITLE1=I Can Do All Things
TTITLE2=Stay in My Life (feat. Onita Boone)
TTITLE3=Start to Care
TTITLE4=I Know Why I'm Praising
TTITLE5=Holy (feat. Onita Boone)
TTITLE6=Let's Not Crucify the Lord Again
TTITLE7=Let the Son Shine
TTITLE8=Joy Overflowing
TTITLE9=Yuh Y'eye Dem Too Big
TTITLE10=You're Right There
TTITLE11=I'll Meet You There (feat. Diane Bridge-Johnson)
EXTD=
EXTT0=
EXTT1=
EXTT2=
EXTT3=
EXTT4=
EXTT5=
EXTT6=
EXTT7=
EXTT8=
EXTT9=
EXTT10=
EXTT11=
PLAYORDER=
